<svg width="174" height="32" viewBox="0 0 174 32" fill="none" xmlns="http://www.w3.org/2000/svg">
<path d="M76.04 9.96V19.52C76.04 21 75.62 22.14 74.78 22.94C73.9533 23.74 72.8333 24.14 71.42 24.14C69.94 24.14 68.7533 23.72 67.86 22.88C66.9667 22.04 66.52 20.8467 66.52 19.3H69.92C69.92 19.8867 70.04 20.3333 70.28 20.64C70.52 20.9333 70.8667 21.08 71.32 21.08C71.7333 21.08 72.0533 20.9467 72.28 20.68C72.5067 20.4133 72.62 20.0267 72.62 19.52V9.96H76.04ZM94.6334 21.52H89.3934L88.5534 24H84.9734L90.0534 9.96H94.0134L99.0934 24H95.4734L94.6334 21.52ZM93.7534 18.88L92.0134 13.74L90.2934 18.88H93.7534ZM111.15 9.96V24H107.73V9.96H111.15ZM136.62 9.96V24H133.2V15.58L130.06 24H127.3L124.14 15.56V24H120.72V9.96H124.76L128.7 19.68L132.6 9.96H136.62ZM149.59 12.7V15.54H154.17V18.18H149.59V21.26H154.77V24H146.17V9.96H154.77V12.7H149.59Z" fill="white"/>
<path d="M165.681 24.16C165.081 24.16 164.588 23.9867 164.201 23.64C163.828 23.28 163.641 22.84 163.641 22.32C163.641 21.7867 163.828 21.34 164.201 20.98C164.588 20.62 165.081 20.44 165.681 20.44C166.268 20.44 166.748 20.62 167.121 20.98C167.508 21.34 167.701 21.7867 167.701 22.32C167.701 22.84 167.508 23.28 167.121 23.64C166.748 23.9867 166.268 24.16 165.681 24.16Z" fill="#FF6800"/>
<rect x="16" width="32" height="16" transform="rotate(90 16 0)" fill="#FFBDBD"/>
<circle cx="32" cy="16" r="16" fill="#4C40F7"/>
<rect x="16" width="32" height="16" transform="rotate(90 16 0)" fill="#FFBDBD"/>
<circle cx="32" cy="16" r="16" fill="white"/>
</svg>
