<svg width="65" height="64" viewBox="0 0 65 64" fill="none" xmlns="http://www.w3.org/2000/svg">
<circle cx="32" cy="32" r="32" fill="#6E59A8"/>
<mask id="mask0_45_3339" style="mask-type:alpha" maskUnits="userSpaceOnUse" x="0" y="0" width="64" height="64">
<circle cx="32" cy="32" r="32" fill="#A7B9FF"/>
</mask>
<g mask="url(#mask0_45_3339)">
<path fill-rule="evenodd" clip-rule="evenodd" d="M75.1037 59.7161C68.28 52.1456 51.957 45.1623 35.3721 44.7156C15.2998 44.1752 -4.15815 52.0714 -9.6433 61.6434C-17.5865 75.5051 -17.5624 106.928 -17.2119 119.344C-17.1202 122.586 -17.0066 124.532 -17.0066 124.532H81.6394C81.6394 124.532 85.1871 70.9032 75.1037 59.7161Z" fill="#3C3A50"/>
<path fill-rule="evenodd" clip-rule="evenodd" d="M36.3306 44.6904L26.241 45.0528L25.6222 50.393L29.0959 73.8955L36.503 102.736L41.6965 64.548L39.8156 51.4972L36.3306 44.6904Z" fill="#F5F5F5"/>
<path fill-rule="evenodd" clip-rule="evenodd" d="M26.2541 45.0566L36.503 102.736L19.5335 66.4887L26.1079 60.5079L17.1315 56.8413L22.3417 45.4556L26.2541 45.0566Z" fill="#23262F"/>
<path fill-rule="evenodd" clip-rule="evenodd" d="M36.3306 44.6904C39.9161 62.0677 38.8916 82.074 36.503 102.736L48.8547 65.3439L41.6965 59.417L48.1723 54.5448L41.6965 45.0571L36.3306 44.6904Z" fill="#23262F"/>
<path fill-rule="evenodd" clip-rule="evenodd" d="M35.6911 39.564L26.4033 37.1191L26.3687 46.2696C26.3687 46.2696 26.5239 48.3947 31.4641 48.3214C36.928 48.2403 36.6047 46.2019 36.6047 46.2019L35.6911 39.564Z" fill="#FFB8C0"/>
<path fill-rule="evenodd" clip-rule="evenodd" d="M35.6894 39.5642L31.1088 38.4746C31.5085 41.1125 33.6379 45.0063 36.6263 46.2466L35.6894 39.5642Z" fill="#FF9CA0"/>
<g clip-path="url(#clip0_45_3339)">
<path fill-rule="evenodd" clip-rule="evenodd" d="M26.8884 38.7081C26.8884 38.7081 24.7881 38.835 24.3396 35.1629C23.891 31.4908 23.8882 29.6485 22.771 27.8394C21.6717 26.0592 20.7887 19.2852 23.5522 18.9718C31.4033 18.0815 36.5756 14.6309 38.6707 14.4963C46.6606 13.9829 47.6893 21.9792 43.1429 24.0027C38.9924 25.85 28.0688 26.2071 28.0688 26.2071L26.8884 38.7081Z" fill="#382149"/>
<path fill-rule="evenodd" clip-rule="evenodd" d="M26.571 31.8544L26.5448 38.7914C29.5296 39.8009 32.5938 40.6714 35.8327 41.2363C35.8327 41.2363 44.1301 42.9582 44.3249 35.4862C44.5253 27.8004 43.3734 24.0664 43.3734 24.0664C38.6888 24.9422 34.0097 25.3306 28.5298 24.5809C28.0967 24.5216 27.6552 24.4907 27.2103 24.4425C21.1352 23.7842 21.0263 31.7008 26.571 31.8544Z" fill="#FFB8C0"/>
<path d="M24.8544 26.8985C24.8165 27.5537 25.0701 28.6239 25.9327 28.7318" stroke="#FF6D7E" stroke-width="0.647037" stroke-linecap="round"/>
<path d="M26.1636 26.5764C26.1636 26.5764 23.8838 26.1431 24.0996 28.8391" stroke="#FF6D7E" stroke-width="0.647037" stroke-miterlimit="1.5" stroke-linecap="round" stroke-linejoin="round"/>
<path fill-rule="evenodd" clip-rule="evenodd" d="M32.7405 22.5293C32.7405 22.5293 30.2719 24.9104 30.085 26.7674C29.8963 28.6265 29.5913 30.7552 28.9089 31.3872C28.2283 32.0191 27.8986 32.0493 27.8986 32.0493L27.9691 23.0771L32.7405 22.5293Z" fill="#382149" fill-opacity="0.21"/>
</g>
<path fill-rule="evenodd" clip-rule="evenodd" d="M36.3187 34.6406C36.5689 34.2825 36.955 34.0431 37.3885 33.9784C38.1348 33.8641 39.2498 33.7002 39.2498 33.7002C39.2498 33.7002 40.5805 33.7886 41.3009 33.8361C41.6007 33.8576 41.8768 34.0086 42.0536 34.2523C42.7891 35.2876 43.1579 36.3725 43.2895 37.8197L42.362 38.4343C42.0687 37.1748 41.7495 36.1956 41.1909 35.0417L37.6538 35.1668C36.6595 36.3875 36.2993 37.5263 36.1008 39.0145L34.4056 38.7449C34.8392 37.1295 35.456 35.8807 36.3187 34.6406Z" fill="#382149"/>
<path fill-rule="evenodd" clip-rule="evenodd" d="M28.22 23.9619L29.3587 33.9781C30.0856 37.1874 34.9858 39.0012 38.5812 39.0379C38.9112 38.7554 39.1118 38.3456 39.198 37.8193L40.4986 37.7309C40.5029 38.2485 40.6517 38.6367 40.9278 38.9128C42.4699 38.7316 43.5677 37.2025 44.3118 35.5633C44.3118 35.5633 44.5339 41.749 38.152 41.4621C32.1453 41.1925 26.4579 38.8481 26.4579 38.8481L26.5377 31.9852L27.0747 24.1215L28.22 23.9619Z" fill="#382149"/>
<path d="M37.9529 35.8874C37.9529 35.8874 38.7407 36.6016 39.9968 36.3775C41.2533 36.1556 41.6228 35.4274 41.6228 35.4274" stroke="#310234" stroke-width="0.539197" stroke-miterlimit="1.5" stroke-linecap="round" stroke-linejoin="round"/>
<path d="M41.6384 30.068C42.0381 30.068 42.3622 29.6186 42.3622 29.0643C42.3622 28.5099 42.0381 28.0605 41.6384 28.0605C41.2386 28.0605 40.9146 28.5099 40.9146 29.0643C40.9146 29.6186 41.2386 30.068 41.6384 30.068Z" fill="#310234"/>
<path d="M36.0244 30.8639C36.4241 30.8639 36.7482 30.4145 36.7482 29.8602C36.7482 29.3058 36.4241 28.8564 36.0244 28.8564C35.6246 28.8564 35.3006 29.3058 35.3006 29.8602C35.3006 30.4145 35.6246 30.8639 36.0244 30.8639Z" fill="#310234"/>
<path fill-rule="evenodd" clip-rule="evenodd" d="M39.1125 29.499L40.9933 33.8191L39.1708 34.0542L39.1125 29.499Z" fill="#FF5F71"/>
<path d="M26.2421 24.6104L33.9893 27.3538" stroke="#382149" stroke-width="0.448612" stroke-miterlimit="1.5" stroke-linecap="round" stroke-linejoin="round"/>
<path d="M35.9308 33.1126C37.4288 33.1126 38.6432 31.5919 38.6432 29.716C38.6432 27.84 37.4288 26.3193 35.9308 26.3193C34.4328 26.3193 33.2185 27.84 33.2185 29.716C33.2185 31.5919 34.4328 33.1126 35.9308 33.1126Z" stroke="#382149" stroke-width="0.449138" stroke-miterlimit="1.5" stroke-linecap="round" stroke-linejoin="round"/>
<path d="M42.4694 32.0774C43.8698 32.0774 45.0051 30.5567 45.0051 28.6808C45.0051 26.8049 43.8698 25.2842 42.4694 25.2842C41.069 25.2842 39.9338 26.8049 39.9338 28.6808C39.9338 30.5567 41.069 32.0774 42.4694 32.0774Z" stroke="#382149" stroke-width="0.448101" stroke-miterlimit="1.5" stroke-linecap="round" stroke-linejoin="round"/>
<path d="M38.5099 28.6802L39.9334 28.4062" stroke="#382149" stroke-width="0.448612" stroke-miterlimit="1.5" stroke-linecap="round" stroke-linejoin="round"/>
</g>
<defs>
<clipPath id="clip0_45_3339">
<rect width="32.7832" height="32.7832" fill="white" transform="translate(17.8305 8.64941)"/>
</clipPath>
</defs>
</svg>
